<?xml version="1.0" encoding="utf-8"?>
<!-- Generator: Adobe Illustrator 26.0.1, SVG Export Plug-In . SVG Version: 6.00 Build 0)  -->
<svg version="1.1" id="Layer_1" xmlns="http://www.w3.org/2000/svg" xmlns:xlink="http://www.w3.org/1999/xlink" x="0px" y="0px"
	 viewBox="0 0 189 159" style="enable-background:new 0 0 189 159;" xml:space="preserve">
<style type="text/css">
	.st0{fill:#00E782;}
</style>
<path class="st0" d="M54.9,58.9l0.2,0l0.1,0l0.4,0.1l0.2,0.1l0.3,0.2l0.2,0.2l0.2,0.2l0.1,0.1l0.2,0.3l0.1,0.2l0.4,0.7l0.3,0.6
	l0.1,0.3l0.2,0.7l0.1,0.4l0.2,0.8l0.1,0.4l0.2,0.8l0.1,0.4l0.1,0.9l0,0.4l0.1,1.8v0.9v1.5l0.9-0.9l0.8-0.9l0.4-0.6l0.2-0.3l0.3-0.6
	l0.1-0.3l0.1-0.6l0-0.3v-0.6l-0.1-0.3L61.3,65l-0.1-0.3l-0.3-0.6l-0.2-0.3l-0.4-0.6L60,63.1l-0.8-0.9l0.7,0.1l0.6,0.1l0.4,0.1
	l0.2,0.1l0.9,0.4l0.4,0.2l0.9,0.5l0.4,0.3l0.4,0.3l0.2,0.1l0.3,0.3l0.1,0.1l0.5,0.6l0.3,0.4l0.1,0.2l0.2,0.4l0,0.2l0,0.4l0,0.2
	l-0.1,0.4l-0.1,0.2l-0.2,0.4l-0.1,0.2L65,68.7l-0.2,0.2l-0.4,0.4l-0.2,0.2l-0.6,0.5l-0.4,0.4l-0.2,0.2L62.4,71l-0.3,0.2l-0.6,0.3
	l-0.3,0.2L60,72.3l-0.7,0.3l-1.4,0.6l-0.8,0.3l-1.6,0.6l1,0.5l1.1,0.5l0.7,0.2l0.3,0.1l0.6,0.1h0.3l0.6,0l0.3-0.1l0.6-0.2l0.3-0.1
	l0.5-0.3l0.2-0.2l0.4-0.4l0.2-0.3l0.4-0.6l0.2-0.3l0.2-0.4l0.1-0.2l0.1-0.1l0.1-0.1h0l0.1,0l0,0.1l0,0.2v0.1l0,0.3v0.2l0,0.4l0,0.3
	l-0.1,0.6l0,0.3l-0.2,1.2l-0.2,0.7l-0.1,0.3l-0.2,0.6L63,77.6l-0.2,0.5l-0.1,0.2l-0.3,0.4l-0.2,0.2l-0.3,0.3l-0.2,0.1l-0.4,0.2
	L61,79.5l-0.4,0.1h-0.2l-0.7-0.1l-0.5-0.2l-0.3-0.1l-0.6-0.3L58,78.7l-0.6-0.4l-0.3-0.2l-0.6-0.5l-0.3-0.3l-0.7-0.6l-0.3-0.3
	l-0.7-0.7l-0.3-0.4l-0.6-0.7l-0.3-0.4l-0.7-0.8L52.1,73L52,72.8l-0.3-0.3l-0.1-0.1l-0.1-0.1l0,0l0,0l0,0l-0.1,0l-0.1,0.1l0,0.1
	l-0.1,0.2l0,0.2l0,0.4v0.2v0.5l0,0.3l0.1,1.1l0.1,0.5l0.1,0.5l0.1,0.2l0.1,0.4l0.1,0.1l0.5,0.7l0.5,0.4l0.3,0.2l0.5,0.4l0.3,0.1
	l0.3,0.1l0.1,0l0.2,0.1l0.1,0l0.6,0.1l0.3,0.1l0.1,0l0.2,0.1l0,0l0,0.1l0,0l-0.1,0.1l-0.1,0l-0.2,0.1L55,79.6l-0.3,0.1l-0.2,0.1
	L54,79.9L53.7,80l-0.9,0.2l-0.4,0.1l-0.8,0.1h-0.4l-0.7,0l-0.3-0.1l-0.6-0.1L49.3,80l-0.5-0.3l-0.3-0.2l-0.1-0.1l-0.2-0.3L48,79
	l-0.2-0.3l-0.1-0.2l-0.1-0.3l0-0.2l-0.1-0.4v-0.2V77l0-0.2l0.1-0.5l0-0.3l0.2-0.6l0.2-0.5l0.1-0.3l0.2-0.6l0.1-0.3l0.3-0.6l0.2-0.3
	l0.7-1.4l0.4-0.7l0.4-0.7l0.2-0.3l0.4-0.6L51,69l0.4-0.6l0.2-0.4l0.1-0.1l0.2-0.3l0.1-0.1l0.1-0.1l0,0l-0.1,0h-0.1l-0.1,0l-0.2,0
	l-0.1,0l-0.3,0.1l-0.2,0l-0.7,0.2l-0.3,0.1l-0.3,0.1l-0.1,0L49.2,68l-0.1,0l-0.7,0.3L48,68.6l-0.2,0.1l-0.3,0.3l-0.1,0.2l-0.3,0.3
	L47,69.7l-0.2,0.4l-0.1,0.2l-0.1,0.5l0,0.2l-0.1,0.5v0.3v0.5l0,0.3l0.1,1.3l-0.6-0.7l-0.3-0.4l-0.2-0.3l-0.1-0.2L45,71.5l-0.2-0.4
	l-0.4-1l-0.2-0.6l-0.1-0.3L44,68.6l0-0.3l0-0.5l0-0.2l0.1-0.5l0.1-0.2l0.2-0.4l0.1-0.2l0.3-0.3l0.2-0.1l0.4-0.3l0.2-0.1l0.7-0.2
	l0.6-0.1l0.4,0l0.8,0h0.4l0.9,0l0.5,0l0.9,0.1l0.5,0.1l1,0.1l0.5,0.1l1,0.2l0.5,0.1l0.9,0.2l0.4,0.1l0.5,0.1l0.3,0.1l0.1,0l0.2,0
	h0.1h0.1l0,0l0.1,0v0v-0.1l0-0.1l0-0.1l0-0.1l-0.1-0.2l-0.1-0.1l-0.6-0.9l-0.5-0.6L55,63.8l-0.6-0.5l-0.3-0.2L54,62.9l-0.1-0.1
	l-0.2-0.1l-0.1,0l-0.4-0.1l-0.3,0h-0.2H52l-0.4,0l-0.7,0.1l-0.3,0.1l-0.3,0.1l-0.2,0L49.9,63l-0.1,0.1l-0.5,0.3l-0.1,0h0H49l0,0
	l0-0.1l0.1-0.1l0.1-0.1l0.1-0.2l0.1-0.1l0.2-0.3l0.1-0.1l0.5-0.6l0.3-0.3l0.5-0.6l0.2-0.2l0.9-0.7l0.6-0.4l0.3-0.1l0.6-0.2l0.3-0.1
	l0.6-0.1h0.3 M52.9,67.2l-0.3,0.8l-0.2,0.4l-0.1,0.3L52.2,69L52,69.7l-0.1,0.3l-0.4,1.2l1.7,1.3l1.7,1.3l0.8-0.5l0.6-0.4l0.4-0.2
	l0.2-0.1l0.3-0.2l0.1-0.1l0.2-0.2l0.1-0.1l0.2-0.2l0.1-0.1l0.1-0.1l0-0.1l0.1-0.1l0,0l0-0.1v-0.1l0-0.2l0-0.2l0-0.1L58,70.5l0-0.2
	L57.9,70l0-0.2l-0.2-0.7l-0.1-0.4l-0.2-0.8l-0.1-0.3l-0.1-0.2L57,67.3l-0.2,0l-0.2,0h-0.1l-0.2,0h-0.1h-0.3h-0.2h-0.4L52.9,67.2
	L52.9,67.2z"/>
</svg>
